<?xml version="1.0" encoding="UTF-8"?> <svg xmlns="http://www.w3.org/2000/svg" id="Layer_2" data-name="Layer 2" viewBox="0 0 71.11 88.46"> <defs> <style> .cls-1 { fill: #1d2239; } </style> </defs> <g id="Layer_1-2" data-name="Layer 1"> <g> <g> <path class="cls-1" d="m12.76,84.39l4.83-28.33c.02-.1.11-.17.21-.17,3.51.17,7-1.96,8.41-5.16.71-1.4.88-3.62,1.19-5.15.61-3.57,3.87-22.51,4.56-26.45,0,0,.31.44.31.44l-17.93-3.09.52-.36c-1.01,5.86-4,23.24-4.95,28.78-1.02,4.13,1.32,8.63,5.32,10.06.28.1.44.39.39.68l-2.49,14.17c-.82,4.73-1.68,9.44-2.55,14.16-.05.3-.34.5-.64.46-2.59-.39-5.24-.77-7.85-.66-.43.03-.89.08-1.16.21-.03,0,.01,0,.04-.06.03-.11-.02-.22,0-.17.71.63,1.78.93,2.73,1.28,4.2,1.35,8.58,2.19,12.96,2.68,1.73.09,3.77.51,5.37-.11-.11-.41-1.13-.79-1.56-1-2.51-1.02-5.03-1.59-7.7-2.21h0Zm.1-.07c2.55.42,5.27,1.01,7.75,1.91.65.29,1.36.47,1.82,1.1.48,1.28-2.5,1.08-3.15,1.14-4.48-.1-8.92-.82-13.28-1.83-1.75-.45-3.47-.86-5.17-1.76-.28-.17-.7-.44-.82-.87-.42-2.39,8.61-.82,10.1-.69,0,0-.64.46-.64.46,1.36-8.2,3.49-20.04,4.95-28.35,0,0,.39.68.39.68-4.54-1.6-7.21-6.78-6.02-11.41.99-5.47,4.16-23.02,5.19-28.74.04-.24.28-.41.52-.36l17.9,3.22c.21.04.35.24.31.44l-3.8,21.13-.96,5.28c-.35,1.61-.52,3.8-1.28,5.26-1.53,3.38-5.22,5.56-8.89,5.35l.21-.17-5.13,28.19h0Z"></path> <path class="cls-1" d="m10.73,37.24l-1.13,6.99c-.49,2.28-.38,4.7.78,6.76,3.55,6.75,13.82,5.87,16.05-1.44.53-1.87.86-4.95,1.24-6.93.77-4.67,1.51-9.36,2.37-14.01l1.03.59c-5.54,4.76-12.72,9.22-20.34,8.05h0Zm-.08-.1c7.63.32,14.09-4.07,19.6-8.91.26-.22.66-.19.89.07.13.15.17.34.14.52-.98,5.79-2.15,11.68-3.22,17.47-.24,1.16-.37,2.32-.76,3.53-.78,2.37-2.53,4.37-4.74,5.48-5.77,3.04-13.17-1.06-13.58-7.57-.11-1.21.1-2.42.34-3.58l1.34-7.01h0Z"></path> </g> <g> <path class="cls-1" d="m58.35,84.39c-2.68.62-5.2,1.19-7.7,2.21-.43.21-1.45.59-1.56,1,1.6.61,3.64.2,5.37.11,4.38-.49,8.76-1.32,12.96-2.68.94-.35,2.02-.65,2.73-1.28.02-.05-.04.07,0,.17.02.06.07.07.04.06-.27-.13-.73-.19-1.16-.21-2.61-.11-5.26.27-7.85.66-.3.05-.59-.16-.64-.46-.87-4.72-1.73-9.44-2.55-14.16l-2.49-14.17c-.05-.28.11-.58.39-.68,4-1.43,6.35-5.93,5.32-10.06-.95-5.54-3.94-22.92-4.95-28.78l.52.36-17.93,3.09.31-.44c.68,3.94,3.95,22.88,4.56,26.45.31,1.53.48,3.75,1.19,5.15,1.41,3.21,4.9,5.33,8.41,5.16.1,0,.19.06.21.17l4.83,28.33h0Zm-.1-.07l-5.13-28.19.21.17c-3.67.21-7.36-1.97-8.89-5.35-.75-1.46-.93-3.66-1.28-5.26l-.96-5.28-3.8-21.13c-.04-.21.1-.41.31-.44l17.9-3.22c.24-.04.48.12.52.36,1.03,5.72,4.2,23.26,5.19,28.74,1.18,4.62-1.48,9.81-6.02,11.41,0,0,.39-.68.39-.68,1.46,8.31,3.59,20.15,4.95,28.35,0,0-.64-.46-.64-.46,1.49-.14,10.52-1.71,10.1.69-.11.43-.54.7-.82.87-1.7.9-3.42,1.31-5.17,1.76-4.36,1.01-8.8,1.73-13.28,1.83-.66-.06-3.64.14-3.15-1.14.46-.63,1.17-.81,1.82-1.1,2.48-.9,5.2-1.49,7.75-1.91h0Z"></path> <path class="cls-1" d="m60.38,37.24c-7.62,1.17-14.79-3.29-20.34-8.05l1.03-.59c.86,4.66,1.6,9.34,2.37,14.01.38,1.98.72,5.05,1.24,6.93,2.23,7.31,12.49,8.19,16.05,1.44,1.16-2.06,1.27-4.48.78-6.76l-1.13-6.99h0Zm.08-.1l1.34,7.01c.24,1.17.45,2.38.34,3.58-.41,6.51-7.81,10.61-13.58,7.57-2.21-1.1-3.96-3.11-4.74-5.48-.39-1.21-.52-2.37-.76-3.53-1.07-5.79-2.24-11.68-3.22-17.47-.03-.18.01-.37.14-.52.22-.26.62-.3.89-.07,5.5,4.84,11.96,9.23,19.6,8.91h0Z"></path> </g> <path class="cls-1" d="m36.56,15.18l-6.57-6.29c-1.01-.73-1.89-2.16-2.01-3.54-.64-5.21,5.91-7.2,8.97-3.34,0,0-.77-.02-.77-.02,1.8-2.24,5.48-2.51,7.53-.43,2.14,2.02,1.87,5.77-.41,7.55-2.03,1.95-4.56,4.15-6.74,6.06h0Zm0-.12c1.75-1.97,4.27-4.88,6.05-6.73,3.97-4.01-1.67-9.71-5.67-5.67-.2.24-.59.24-.77-.02-2.49-3.31-7.99-1.75-7.55,2.66.1,1.25.73,2.45,1.72,3.26l6.22,6.51h0Z"></path> </g> </g> </svg> 