<?xml version="1.0" encoding="UTF-8"?> <svg xmlns="http://www.w3.org/2000/svg" id="Layer_2" data-name="Layer 2" viewBox="0 0 90.88 70.56"> <defs> <style> .cls-1 { fill: #fff; } .cls-2 { fill: #1d2239; } </style> </defs> <g id="Layer_1-2" data-name="Layer 1"> <g> <path class="cls-2" d="m46.44,18.61c-6.45,3.41-11.16,8.96-13.41,15.97-1.79,5.39-2.02,11.48-.34,16.94.28-.02.55-.05.82-.08-1.2-3.61-1.55-7.52-1.08-11.31.94-7.63,4.54-13.85,10.76-18.38,1.22-.93,2.48-1.75,3.79-2.46-.17-.23-.36-.46-.54-.68Zm43.83,22.27c-.05-.49-.16-1.59-.23-2.1-.08-.46-.31-1.63-.4-2.07-.19-.64-.35-1.39-.57-2.02-2.3-7.06-7.51-12.85-14.06-16.16,0-.01-.01-.01-.01-.01-.06-.03-.11-.06-.16-.08-.04-.02-.06-.04-.1-.06h-.02c-.19-.09-.37-.19-.56-.27h-.01s-.05-.03-.08-.04c-.06-.03-.11-.06-.17-.08h-.01c-1.46-.67-2.98-1.21-4.54-1.61-5.05-1.32-10.45-1.6-15.55-.49-.09.02-.18.04-.27.06-.1.02-.2.04-.3.07.15.21.31.42.45.63.09-.03.18-.05.28-.07.09-.02.17-.04.26-.06,4.85-1.15,9.99-1.06,15.04.22,1.6.42,3.16.99,4.66,1.71h.01c.22.1.43.21.66.33h.02c2.8,1.43,5.33,3.35,7.48,5.64l.48.49.45.52c.87,1,1.77,2.18,2.47,3.29.45.64,1.02,1.68,1.39,2.37.2.32.43.9.59,1.24.69,1.44,1.18,2.98,1.6,4.52.11.44.32,1.57.41,2.02.05.49.22,1.56.24,2.05.02.64.08,1.42.07,2.06-.02,1.25-.12,2.52-.3,3.77-.13.63-.3,1.74-.48,2.35-.18.62-.34,1.39-.57,1.99-.33,1.03-.83,2.21-1.28,3.19-1.93,3.87-4.74,7.31-8.18,9.95-.61.5-1.57,1.12-2.23,1.56-.4.23-1.39.8-1.78,1.01-.6.27-1.25.61-1.86.86-11.64,4.76-27.02,1.25-35.18-8.4-.29-.33-.56-.66-.82-1-.07-.09-.14-.17-.2-.26-.08-.1-.15-.2-.22-.3-.31.07-.61.13-.92.18.06.1.13.2.21.29.06.1.12.19.19.28.22.28.44.56.67.84,2.94,3.35,6.71,5.89,10.68,7.84,6.72,3.29,14.58,4.32,21.88,2.61.66-.16,1.38-.4,2.04-.57.45-.14,1.54-.55,2-.7.63-.25,1.31-.59,1.94-.85.42-.21,1.44-.78,1.87-1,2.43-1.46,4.6-3.33,6.4-5.51,1.77-2.18,3.23-4.65,4.3-7.24l.53-1.29c.15-.46.54-1.56.67-2,.16-.63.39-1.4.52-2.03.08-.47.33-1.62.37-2.07.06-.65.19-1.45.21-2.1l.07-1.4c0-.65-.04-1.44-.05-2.1Zm-42.74-21.89c-.11-.15-.22-.3-.33-.44-.06-.07-.12-.15-.2-.23-.1.04-.19.09-.28.14.19.22.37.44.54.67.09-.04.18-.09.27-.14Zm-15.1,21.14c.94-7.63,4.54-13.85,10.76-18.38,1.22-.93,2.48-1.75,3.79-2.46-.17-.23-.36-.46-.54-.68-6.45,3.41-11.16,8.96-13.41,15.97-1.79,5.39-2.02,11.48-.34,16.94.28-.02.55-.05.82-.08-1.2-3.61-1.55-7.52-1.08-11.31Zm14.01-21.52c-6.45,3.41-11.16,8.96-13.41,15.97-1.79,5.39-2.02,11.48-.34,16.94.28-.02.55-.05.82-.08-1.2-3.61-1.55-7.52-1.08-11.31.94-7.63,4.54-13.85,10.76-18.38,1.22-.93,2.48-1.75,3.79-2.46-.17-.23-.36-.46-.54-.68Zm0,0c-6.45,3.41-11.16,8.96-13.41,15.97-1.79,5.39-2.02,11.48-.34,16.94.28-.02.55-.05.82-.08-1.2-3.61-1.55-7.52-1.08-11.31.94-7.63,4.54-13.85,10.76-18.38,1.22-.93,2.48-1.75,3.79-2.46-.17-.23-.36-.46-.54-.68Zm0,0c-6.45,3.41-11.16,8.96-13.41,15.97-1.79,5.39-2.02,11.48-.34,16.94.28-.02.55-.05.82-.08-1.2-3.61-1.55-7.52-1.08-11.31.94-7.63,4.54-13.85,10.76-18.38,1.22-.93,2.48-1.75,3.79-2.46-.17-.23-.36-.46-.54-.68Zm0,0c-6.45,3.41-11.16,8.96-13.41,15.97-1.79,5.39-2.02,11.48-.34,16.94.28-.02.55-.05.82-.08-1.2-3.61-1.55-7.52-1.08-11.31.94-7.63,4.54-13.85,10.76-18.38,1.22-.93,2.48-1.75,3.79-2.46-.17-.23-.36-.46-.54-.68Z"></path> <path class="cls-2" d="m50.47,24.16c-.11.05-.21.1-.31.16-.1.05-.21.1-.31.16-4.1,2.21-7.49,5.71-9.27,10.08-2.07,4.72-2.54,10.24-.94,15.15.02.07.04.13.07.2.02.06.04.12.06.18.25-.11.5-.23.74-.36-.03-.06-.05-.12-.07-.19-.03-.06-.05-.12-.06-.19-.06-.14-.11-.28-.15-.43-1.99-6.54-.43-14.23,4.31-19.24,1.71-1.77,3.58-3.22,5.58-4.36.11-.06.22-.13.34-.19.1-.06.21-.11.31-.16-.09-.27-.2-.54-.3-.81Zm30.83,9.99c-2.68-5.63-7.96-9.81-13.97-11.37-2.73-.71-5.56-1.04-8.38-.88-.64.03-1.28.1-1.91.19-.06.01-.13.02-.19.03l-.21.03c.09.22.17.43.25.65.07-.01.13-.03.19-.03.07-.02.14-.03.2-.04,3.2-.58,6.56-.45,9.96.41,5.39,1.38,9.97,5.17,12.76,9.92.11.21.51.93.62,1.13.41.86.78,1.74,1.09,2.62.16.47.29,1.02.44,1.49.08.33.24,1.18.31,1.52.37,2.38.3,4.84-.23,7.2-.21.97-.55,2.04-.89,2.97-.14.32-.48,1.12-.63,1.42-1.77,3.52-4.55,6.51-7.86,8.63-.3.17-1.04.6-1.33.76-.45.21-.94.46-1.39.66-.33.12-1.13.43-1.45.54-.48.12-1,.3-1.48.42-6.04,1.42-12.61.39-18-2.66-1.83-1.06-3.52-2.4-4.96-3.96-.08-.1-.17-.2-.25-.3-.1-.1-.19-.2-.28-.31-.08.05-.15.09-.21.12-.13.06-.33.15-.56.26.1.11.19.21.29.31.08.09.17.18.28.27,1.08,1.11,2.33,2.08,3.63,2.94,1.17.8,2.39,1.51,3.67,2.12,5.4,2.67,11.8,3.42,17.61,1.73.99-.28,2.08-.68,3.01-1.11.57-.22,1.37-.68,1.92-.97.32-.21,1.05-.65,1.36-.87,1.73-1.27,3.26-2.83,4.46-4.6.9-1.32,1.66-2.75,2.27-4.22l.4-.99c.19-.58.5-1.43.63-2.02,1.28-4.62.94-9.69-1.17-14.01Z"></path> <g> <path class="cls-2" d="m90.84,13.22c-.87-2.07-2.64-6.24-3.52-8.3-.05-.11-.13-.2-.24-.25-2.48-1.17-7.48-3.48-9.97-4.63-.1-.04-.21-.06-.33-.03l-8.73,2.31c-.26.07-.41.36-.3.61,1.48,3.62,4.38,10.55,6.13,14.67v.03h0c.05.16.11.3.18.44,0,.04.03.08.05.12h0c.06.15.11.27.17.4.01.01.02.01.02.01.12-.04.23-.07.35-.11h.01c.06-.02.11-.03.17-.05.16-.05.33-.1.5-.15.01,0,.02-.01.03-.01,4.69-1.36,10.82-3.11,15.19-4.46.25-.07.39-.36.28-.6Zm-.82.35s-.02-.03-.03-.05h0c-.05-.13-.11-.26-.17-.4-.13.04-.27.09-.41.13h-.01s-.01.01-.01.01h0c-3.77,1.18-8.58,2.74-12.58,4.05h-.02c-.62.2-1.19.4-1.76.58h-.02s-.08.03-.12.04c-.12.04-.24.08-.36.12-.04-.11-.08-.2-.12-.31v-.02s-.03-.06-.05-.1h0c-.15-.42-.33-.85-.5-1.33t-.01-.02s-.01-.02-.01-.03c-1.42-3.77-3.53-9.28-4.88-12.72h0c-.06-.16-.12-.31-.17-.45l-.45.12h-.05s.01-.01.01-.01h0s.28-.57.28-.57h0s.01-.02.01-.02c0,.01.01.01.01.02h.01v.02c.05.15.11.28.17.44l.53-.14h.02l6.57-1.69h.02s0-.01.01-.01l.93-.24s-.11-.05-.16-.07h.16s.17.03.17.03l-.15.04h-.01.01c.12.07.24.12.36.18h.01c.22.1.44.21.68.32,2.28,1.07,5.51,2.57,7.72,3.59h.01c.28.13.52.25.76.36.03.01.05.02.08.03-.03-.05-.05-.11-.08-.16l.24.24s-.11-.05-.16-.08c.02.07.06.15.1.23v.02c.2.46.43.99.68,1.57,0,0,0,.01.01.01h0c.75,1.75,1.66,3.82,2.33,5.35h0c.07.17.14.32.2.47.15-.05.29-.09.43-.13h.01s.02-.01.04-.02l-.02.03-.24.53h0s-.02.04-.02.04Z"></path> <path class="cls-2" d="m90.31,13.67c-7.51-3.28-15-6.84-22.27-10.61-.34-.18-.1-.71.27-.56.95.4,1.88.83,2.82,1.24,2.73,1.24,5.7,2.62,8.39,3.91,2.68,1.28,5.63,2.75,8.3,4.09.91.47,1.83.94,2.74,1.42.31.17.09.65-.25.51h0Z"></path> <path class="cls-2" d="m72.25,4.6c1.55-1.45,3.11-2.87,4.69-4.28.17-.16.44-.14.6.03.05.05.08.11.1.18.64,2.14,1.53,5.25,2.14,7.43,0,0-.66-.33-.66-.33,2.23-.88,5.37-2.11,7.59-2.93.29-.13.63.11.62.42,0,0-.06,3.29-.06,3.29-.03,1.1-.05,2.19-.1,3.29,0,.17-.15.31-.32.3-.16,0-.29-.14-.3-.3-.04-1.1-.06-2.19-.08-3.29l-.04-3.29.62.42c-2.17.9-5.34,2.14-7.56,3.01-.27.11-.58-.05-.66-.33l-1.02-3.73c-.34-1.24-.67-2.49-.99-3.74l.7.21c-1.61,1.37-3.24,2.73-4.88,4.06-.28.22-.64-.18-.37-.43h0Z"></path> <path class="cls-2" d="m79.56,8.21c-1.02,2.66-2.22,5.23-3.51,7.76-.43.84-.88,1.68-1.36,2.5-.19.32-.69.09-.56-.27,1.38-3.53,3.04-6.94,4.92-10.24.17-.3.64-.08.51.25h0Z"></path> <path class="cls-2" d="m74.21,5.51c.31,4.2.52,8.61.69,12.81,0,0-.78-.39-.78-.39l2.72-1.84c1.58-1.06,3.87-2.57,5.49-3.62.93-.59,1.84-1.19,2.78-1.77.15-.09.34-.05.43.1.09.14.05.32-.08.41-.88.65-1.78,1.28-2.67,1.93-1.59,1.11-3.81,2.69-5.4,3.76,0,0-2.72,1.85-2.72,1.85-.23.15-.54.1-.69-.13-.05-.08-.08-.17-.09-.26-.07-2.14-.14-4.27-.18-6.41-.03-1.88-.09-4.55-.08-6.41,0-.36.53-.38.57-.02h0Z"></path> </g> <g> <path class="cls-1" d="m50.47,24.16c-.29-.7-.61-1.39-.96-2.05-.56-1.09-1.24-2.14-1.98-3.12-.09.05-.18.1-.27.14,1.21,1.58,2.2,3.33,2.9,5.19.11.27.21.54.3.81.1-.06.21-.11.31-.16-.09-.27-.2-.54-.3-.81Zm1.16,3.98c-.2-1.07-.49-2.14-.86-3.17-.09-.27-.2-.54-.3-.81-.29-.7-.61-1.39-.96-2.05-.56-1.09-1.24-2.14-1.98-3.12-.09.05-.18.1-.27.14,1.21,1.58,2.2,3.33,2.9,5.19.11.27.21.54.3.81.33,1,.58,2.03.75,3.08,1.25,7.97-2.71,16.51-9.61,20.69-.38.23-.76.44-1.16.64-.24.13-.48.25-.73.37.02.06.04.12.06.18.25-.11.5-.23.74-.36.4-.21.8-.43,1.19-.67,5.25-3.18,8.94-8.73,9.94-14.78.13-.97.23-1.96.25-2.94.01-1.06-.1-2.15-.26-3.2Zm0,0c-.2-1.07-.49-2.14-.86-3.17-.09-.27-.2-.54-.3-.81-.29-.7-.61-1.39-.96-2.05-.56-1.09-1.24-2.14-1.98-3.12-.09.05-.18.1-.27.14,1.21,1.58,2.2,3.33,2.9,5.19.11.27.21.54.3.81.33,1,.58,2.03.75,3.08,1.25,7.97-2.71,16.51-9.61,20.69-.38.23-.76.44-1.16.64-.24.13-.48.25-.73.37.02.06.04.12.06.18.25-.11.5-.23.74-.36.4-.21.8-.43,1.19-.67,5.25-3.18,8.94-8.73,9.94-14.78.13-.97.23-1.96.25-2.94.01-1.06-.1-2.15-.26-3.2Zm-18.03,23.55c-.28.04-.55.08-.83.11.02.08.05.16.08.24.28-.03.55-.07.83-.11-.03-.08-.06-.16-.08-.24Zm18.03-23.55c-.2-1.07-.49-2.14-.86-3.17-.09-.27-.2-.54-.3-.81-.29-.7-.61-1.39-.96-2.05-.56-1.09-1.24-2.14-1.98-3.12-.09.05-.18.1-.27.14,1.21,1.58,2.2,3.33,2.9,5.19.11.27.21.54.3.81.33,1,.58,2.03.75,3.08,1.25,7.97-2.71,16.51-9.61,20.69-.38.23-.76.44-1.16.64-.24.13-.48.25-.73.37.02.06.04.12.06.18.25-.11.5-.23.74-.36.4-.21.8-.43,1.19-.67,5.25-3.18,8.94-8.73,9.94-14.78.13-.97.23-1.96.25-2.94.01-1.06-.1-2.15-.26-3.2Zm-18.03,23.55c-.28.04-.55.08-.83.11.02.08.05.16.08.24.28-.03.55-.07.83-.11-.03-.08-.06-.16-.08-.24Zm18.03-23.55c-.2-1.07-.49-2.14-.86-3.17-.09-.27-.2-.54-.3-.81-.29-.7-.61-1.39-.96-2.05-.56-1.09-1.24-2.14-1.98-3.12-.09.05-.18.1-.27.14,1.21,1.58,2.2,3.33,2.9,5.19.11.27.21.54.3.81.33,1,.58,2.03.75,3.08,1.25,7.97-2.71,16.51-9.61,20.69-.38.23-.76.44-1.16.64-.24.13-.48.25-.73.37.02.06.04.12.06.18.25-.11.5-.23.74-.36.4-.21.8-.43,1.19-.67,5.25-3.18,8.94-8.73,9.94-14.78.13-.97.23-1.96.25-2.94.01-1.06-.1-2.15-.26-3.2Zm6.6-.88c-.24-1.53-.63-3.04-1.15-4.49-.06-.22-.14-.44-.23-.65-.74-1.95-1.72-3.81-2.89-5.54-.14-.22-.29-.43-.43-.63-3.79-5.3-9.42-9.32-15.76-10.93C16.53-.37,5.69,15.47,5.69,15.47c-7.03,9.64-7.41,24.07.67,32.83,2.15,2.33,4.7,4.28,7.45,5.86,6.63,3.81,14.69,5.33,22.17,4.01.31-.05.62-.11.93-.17-.08-.1-.15-.2-.22-.3-.31.07-.61.13-.92.18-7.01,1.21-14.43-.17-20.68-3.51-2.42-1.28-4.69-2.86-6.76-4.66-2.44-2.07-4.44-4.66-5.68-7.63C-.81,33.85.51,23.91,5.46,16.55c4.56-6.35,12.12-11.09,19.91-12.15,4.55-.57,9.24-.08,13.62,1.28,1.96.61,3.85,1.49,5.62,2.53.4.2,1.35.86,1.74,1.11,1.12.77,2.2,1.69,3.21,2.58.49.44.97,1,1.46,1.45.29.32,1.07,1.22,1.36,1.55l.83,1.1.02.02c.15.21.31.42.45.63,1.21,1.7,2.19,3.56,2.96,5.5.09.22.17.43.25.65.06.16.11.31.17.47.22.63.37,1.36.58,1.99.1.45.31,1.56.41,2.02.03.49.19,1.58.21,2.06,0,.67.07,1.4.05,2.07-.07,3.9-1.06,7.75-2.72,11.27-.32.59-.63,1.25-.96,1.82l-.72,1.17c-.33.58-.8,1.14-1.16,1.69-.26.39-.97,1.23-1.28,1.61-.24.3-.66.72-.93,1-.93,1-1.96,1.9-3.03,2.74-.7.57-1.5,1.07-2.23,1.58-.33.19-1.11.64-1.57.9-.08.05-.15.09-.21.12-.13.06-.33.15-.56.26.1.11.19.21.29.31.25-.12.51-.25.76-.38.51-.26,1.02-.55,1.52-.85,9.13-5.54,14.37-16.85,12.72-27.39Zm-6.59,7.02c.13-.97.23-1.96.25-2.94.01-1.06-.1-2.15-.26-3.2-.2-1.07-.49-2.14-.86-3.17-.09-.27-.2-.54-.3-.81-.29-.7-.61-1.39-.96-2.05-.56-1.09-1.24-2.14-1.98-3.12-.11-.15-.22-.3-.33-.44-.06-.07-.12-.15-.2-.23-.37-.45-.84-1.01-1.21-1.37-3.18-3.36-7.47-5.64-12.04-6.4-6.97-1.24-14.53.88-19.82,5.59-5.31,4.7-7.93,12.46-6.55,19.43.59,2.81,1.85,5.45,3.6,7.69,5.18,6.38,13.78,9.69,21.87,8.78.28-.03.55-.07.83-.11-.03-.08-.06-.16-.08-.24-.28.04-.55.08-.83.11-5.17.52-10.58-.67-15.11-3.27-2.08-1.19-4-2.66-5.63-4.42-6.1-6.62-5.81-17.52-.5-24.8,0,0,8.19-11.96,24.23-7.89,4.29,1.09,8.15,3.64,10.96,7.04.19.22.37.44.54.67,1.21,1.58,2.2,3.33,2.9,5.19.11.27.21.54.3.81.33,1,.58,2.03.75,3.08,1.25,7.97-2.71,16.51-9.61,20.69-.38.23-.76.44-1.16.64-.24.13-.48.25-.73.37.02.06.04.12.06.18.25-.11.5-.23.74-.36.4-.21.8-.43,1.19-.67,5.25-3.18,8.94-8.73,9.94-14.78Z"></path> <path class="cls-2" d="m43.71,55.19c-.08.05-.15.09-.21.12-.13.06-.33.15-.56.26-.68-.75-1.29-1.57-1.8-2.47-.56-.97-1.01-1.97-1.37-3.01.25-.11.5-.23.74-.36.73,2,1.83,3.84,3.2,5.46Z"></path> <path class="cls-2" d="m36.69,57.7c-.31.07-.61.13-.92.18-1.27-1.8-2.24-3.77-2.92-5.84.28-.03.55-.07.83-.11.72,2.05,1.72,4,3.01,5.77Z"></path> <g> <path class="cls-2" d="m58.66,29.31c-.05-.48-.18-1.58-.24-2.08-.25-1.54-.63-3.04-1.14-4.5-.07-.21-.15-.43-.24-.64-.72-1.96-1.67-3.83-2.82-5.57-.13-.21-.27-.42-.42-.63-3.25-4.67-7.89-8.37-13.31-10.32C26.52.62,9.77,5.32,2.99,19.13c-3.32,6.72-4.02,14.81-1.36,21.87,3.28,9.01,11.87,14.89,20.96,17.02,4.42,1.05,9.09,1.22,13.58.43.31-.06.63-.12.94-.19-.07-.09-.14-.17-.2-.26-.08-.1-.15-.2-.22-.3-.31.07-.61.13-.92.18-7.01,1.21-14.43-.17-20.68-3.51-2.42-1.28-4.69-2.86-6.76-4.66-2.44-2.07-4.44-4.66-5.68-7.63C-.81,33.85.51,23.91,5.46,16.55c4.56-6.35,12.12-11.09,19.91-12.15,4.55-.57,9.24-.08,13.62,1.28,1.96.61,3.85,1.49,5.62,2.53.4.2,1.35.86,1.74,1.11,1.12.77,2.2,1.69,3.21,2.58.49.44.97,1,1.46,1.45.29.32,1.07,1.22,1.36,1.55l.83,1.1.02.02c.15.21.31.42.45.63,1.21,1.7,2.19,3.56,2.96,5.5.09.22.17.43.25.65.06.16.11.31.17.47.22.63.37,1.36.58,1.99.1.45.31,1.56.41,2.02.03.49.19,1.58.21,2.06,0,.67.07,1.4.05,2.07-.07,3.9-1.06,7.75-2.72,11.27-.32.59-.63,1.25-.96,1.82l-.72,1.17c-.33.58-.8,1.14-1.16,1.69-.26.39-.97,1.23-1.28,1.61-.24.3-.66.72-.93,1-.93,1-1.96,1.9-3.03,2.74-.7.57-1.5,1.07-2.23,1.58-.33.19-1.11.64-1.57.9-.08.05-.15.09-.21.12-.13.06-.33.15-.56.26.1.11.19.21.29.31.08.09.17.18.28.27.25-.11.49-.23.73-.35.08-.04.16-.08.24-.12.99-.5,2.11-1.19,3.02-1.82.53-.44,1.15-.86,1.66-1.31.98-.85,1.88-1.79,2.75-2.75,1.56-1.89,3-3.95,4.01-6.19l.31-.63.27-.65c.64-1.5,1.14-3.07,1.51-4.67.17-.63.33-1.76.46-2.41.06-.79.21-1.64.23-2.44l.04-1.4c.01-.68-.07-1.42-.08-2.1Z"></path> <path class="cls-2" d="m51.63,28.14c-.2-1.07-.49-2.14-.86-3.17-.09-.27-.2-.54-.3-.81-.29-.7-.61-1.39-.96-2.05-.56-1.09-1.24-2.14-1.98-3.12-.11-.15-.22-.3-.33-.44-.06-.07-.12-.15-.2-.23-.37-.45-.84-1.01-1.21-1.37-3.18-3.36-7.47-5.64-12.04-6.4-6.97-1.24-14.53.88-19.82,5.59-5.31,4.7-7.93,12.46-6.55,19.43.59,2.81,1.85,5.45,3.6,7.69,5.18,6.38,13.78,9.69,21.87,8.78.28-.03.55-.07.83-.11-.03-.08-.06-.16-.08-.24-.04-.08-.06-.16-.09-.25-.27.03-.54.06-.82.08-5.15.47-10.51-.78-14.99-3.29-5.04-2.86-8.59-6.96-9.41-12.82-1.1-6.73.94-14.12,6.15-18.71,4.04-3.74,9.5-6.09,15.06-5.72,2.56.09,5.15.5,7.61,1.26,1.46.49,2.86,1.15,4.19,1.95,1.93,1.19,3.67,2.68,5.14,4.42.18.22.37.45.54.68,1.17,1.52,2.13,3.2,2.8,5,.02.06.05.12.07.19.1.27.19.55.27.84.15.48.28.97.39,1.44.08.33.21,1.16.28,1.51.19,1.69.26,3.43.07,5.11-.04.29-.07.74-.13,1.02-.17.98-.39,2.06-.7,3-.19.57-.44,1.4-.7,1.94l-.19.48-.23.47c-1.59,3.44-4.18,6.43-7.41,8.45-.37.22-.74.42-1.12.61-.24.13-.49.25-.74.36.02.07.04.13.07.2.02.06.04.12.06.18.25-.11.5-.23.74-.36.4-.21.8-.43,1.19-.67,5.25-3.18,8.94-8.73,9.94-14.78.13-.97.23-1.96.25-2.94.01-1.06-.1-2.15-.26-3.2Z"></path> </g> </g> </g> </g> </svg> 